<?xml version="1.0" encoding="utf-8"?>
<!-- Generator: Adobe Illustrator 21.0.0, SVG Export Plug-In . SVG Version: 6.00 Build 0)  -->
<svg version="1.1" id="Layer_1" xmlns="http://www.w3.org/2000/svg" xmlns:xlink="http://www.w3.org/1999/xlink" x="0px" y="0px"
	 viewBox="0 0 15.7 25" style="enable-background:new 0 0 15.7 25;" xml:space="preserve">
<g>
	<g>
		<path d="M9.4,8.8c0.5,0,1,0.1,1.4,0.4l0,0l0,0c0.4,0.2,0.6,0.6,0.6,1.1v4.5c0,0.8-0.2,1.5-0.6,2L10.8,17l0,0c0,0,0,0,0,0
			c-0.1,0.1-0.2,0.2-0.3,0.4c-0.1,0.1-0.1,0.2-0.1,0.2l-0.2,0.2l-0.1,0.3c0,0.3-0.1,0.5-0.2,0.8c-0.1,0.3-0.2,0.6-0.2,1
			c-0.2,1.3-0.4,2.6-0.6,3.8c0,0.1,0,0.2-0.3,0.2H7.6H7.4c-0.1,0-0.1-0.1-0.2-0.2c-0.2-1.2-0.4-2.4-0.6-3.5l-0.3-1.8l0-0.1l0-0.1
			c-0.1-0.4-0.3-0.7-0.6-1.1l-0.1-0.1l-0.1,0c-0.1-0.1-0.3-0.3-0.3-0.7C5.1,15.7,5,15.2,5,14.7v-2.1v-2.2c0-0.6,0.3-1,0.8-1.3
			c0.4-0.2,0.8-0.3,1.5-0.3H9.4 M9.4,7.8c-0.7,0-1.4,0-2.1,0S6,7.9,5.4,8.2C4.5,8.6,4,9.4,4,10.4c0,0.7,0,1.5,0,2.2s0,1.4,0,2.1
			c0,0.6,0.1,1.2,0.3,2c0.1,0.5,0.3,1,0.7,1.3c0.2,0.2,0.3,0.4,0.4,0.7c0.1,0.6,0.2,1.2,0.3,1.8c0.2,1.1,0.4,2.3,0.6,3.5
			c0.1,0.5,0.5,0.9,1,1c0.1,0,0.2,0,0.3,0c0.4,0,0.8,0,1.2,0c0.7,0,1.2-0.4,1.3-1.1c0.2-1.2,0.4-2.5,0.6-3.8
			c0.1-0.6,0.3-1.2,0.4-1.8c0.1-0.1,0.1-0.2,0.2-0.3c0.1-0.2,0.3-0.3,0.4-0.5c0.6-0.8,0.8-1.7,0.8-2.6c0-1.5,0-3,0-4.5
			c0-0.9-0.4-1.6-1.1-2C10.8,8,10.1,7.8,9.4,7.8L9.4,7.8z"/>
	</g>
	<g>
		<path d="M8.2,1.1c1.4,0,2.5,1.1,2.5,2.5C10.7,5,9.7,6,8.2,6C6.9,6,5.8,4.9,5.8,3.6C5.8,2.3,6.8,1.2,8.2,1.1 M8.2,0.1
			c-2,0.1-3.4,1.7-3.4,3.5C4.8,5.5,6.3,7,8.2,7c2,0,3.5-1.4,3.5-3.4S10.1,0.1,8.2,0.1L8.2,0.1z"/>
	</g>
</g>
</svg>
