<?xml version="1.0" encoding="utf-8"?>
<!-- Generator: Adobe Illustrator 19.2.1, SVG Export Plug-In . SVG Version: 6.00 Build 0)  -->
<svg version="1.1" id="Layer_1" xmlns="http://www.w3.org/2000/svg" xmlns:xlink="http://www.w3.org/1999/xlink" x="0px" y="0px"
	 viewBox="0 0 15.7 25" style="enable-background:new 0 0 15.7 25;" xml:space="preserve">
<g>
	<path d="M4,12.6c0-0.7,0-1.5,0-2.2c0-1,0.5-1.8,1.4-2.2C6,7.9,6.6,7.8,7.3,7.8c0.7,0,1.4,0,2.1,0c0.7,0,1.4,0.2,2,0.6
		c0.7,0.4,1.1,1.1,1.1,2c0,1.5,0,3,0,4.5c0,0.9-0.2,1.8-0.8,2.6c-0.1,0.2-0.3,0.3-0.4,0.5c-0.1,0.1-0.1,0.2-0.2,0.3
		c-0.1,0.6-0.3,1.2-0.4,1.8c-0.2,1.3-0.4,2.6-0.6,3.8c-0.1,0.7-0.6,1.1-1.3,1.1c-0.4,0-0.8,0-1.2,0c-0.1,0-0.2,0-0.3,0
		c-0.5-0.1-0.9-0.5-1-1c-0.2-1.2-0.4-2.4-0.6-3.5c-0.1-0.6-0.2-1.2-0.3-1.8c-0.1-0.3-0.2-0.5-0.4-0.7c-0.4-0.3-0.6-0.8-0.7-1.3
		C4.1,15.9,4,15.3,4,14.7C4,14,4,13.3,4,12.6z"/>
	<path d="M4.8,3.6c0-1.8,1.4-3.4,3.4-3.5c1.9,0,3.5,1.5,3.5,3.5c0,2-1.5,3.4-3.5,3.4C6.3,7,4.8,5.5,4.8,3.6z"/>
</g>
</svg>
