<?xml version="1.0" encoding="utf-8"?>
<!-- Generator: Adobe Illustrator 21.1.0, SVG Export Plug-In . SVG Version: 6.00 Build 0)  -->
<svg version="1.1" id="Layer_1" xmlns="http://www.w3.org/2000/svg" xmlns:xlink="http://www.w3.org/1999/xlink" x="0px" y="0px"
	 viewBox="0 0 15.7 25" style="enable-background:new 0 0 15.7 25;" xml:space="preserve">
<style type="text/css">
	.st0{fill:none;stroke:#000000;stroke-width:0.8961;stroke-miterlimit:10;}
	.st1{fill:none;stroke:#000000;stroke-miterlimit:10;}
</style>
<path class="st0" d="M4.8,3.6c0-1.6,1.3-3,3-3.1c1.7,0,3.1,1.3,3.1,3.1s-1.3,3-3.1,3C6.1,6.6,4.8,5.3,4.8,3.6z"/>
<path class="st1" d="M11.2,8.5H9.1c-0.7,0-1.5,0-2.3,0H4.5c-1.3,0-2.4,1.1-2.4,2.4v4.4c0,1.2,0.8,2.1,1.9,2.4
	c0.1,0.1,0.2,0.2,0.3,0.3c0.2,0.2,0.4,0.4,0.5,0.6c0.1,0.5,0.2,1.1,0.4,1.6c0.1,0.9,0.4,2,0.5,3.2c0.1,0.5,0.5,0.8,1.1,0.9
	c0.1,0,0.2,0,0.4,0c0.5,0,0.9,0,1.3,0c0.7,0,1.3-0.4,1.4-1c0.2-1.1,0.5-2.3,0.6-3.5c0.1-0.5,0.4-1.1,0.5-1.6
	c0.1-0.1,0.1-0.2,0.2-0.3c0-0.1,0.1-0.1,0.2-0.2c1.3-0.1,2.3-1.1,2.3-2.4V11C13.5,9.6,12.5,8.5,11.2,8.5z"/>
</svg>
